<svg width="80" height="80" viewBox="0 0 80 80" fill="none" xmlns="http://www.w3.org/2000/svg">
<g filter="url(#filter0_d_25_85)">
<path d="M67.5554 11.1207V63.2324C67.5554 64.6005 66.4479 65.708 65.0798 65.708H14.9747C13.6066 65.708 12.4991 64.6005 12.4991 63.2324V59.988C11.1636 59.988 9.95189 59.4408 9.07889 58.5678C8.19294 57.6949 7.65869 56.4766 7.65869 55.1411H12.4991V11.1207C12.4991 9.75265 13.6066 8.64514 14.9747 8.64514H65.0798C66.448 8.64514 67.5554 9.75265 67.5554 11.1207Z" fill="white"/>
<path d="M12.6893 59.4095C10.1282 59.4095 8.87813 56.3606 8.57324 54.8361L58.4229 54.3788C59.3643 58.1443 61.4943 59.2634 62.851 59.4095H63.4536C63.28 59.4312 63.0761 59.4337 62.851 59.4095H12.6893Z" fill="#38BFF2"/>
<path d="M23.182 27.8533C21.0227 27.8533 19.2661 29.6061 19.2661 31.7602C19.2661 33.915 21.0227 35.6679 23.182 35.6679C25.3362 35.6679 27.0889 33.915 27.0889 31.7602C27.0889 29.6061 25.3362 27.8533 23.182 27.8533Z" fill="#38BFF2"/>
<path d="M23.182 27.8533C21.0227 27.8533 19.2661 29.6061 19.2661 31.7602C19.2661 33.915 21.0227 35.6679 23.182 35.6679C25.3362 35.6679 27.0889 33.915 27.0889 31.7602C27.0889 29.6061 25.3362 27.8533 23.182 27.8533ZM23.182 34.3648C21.7413 34.3648 20.5691 33.1962 20.5691 31.7602C20.5691 30.3243 21.7413 29.1561 23.182 29.1561C24.6179 29.1561 25.786 30.3243 25.786 31.7602C25.786 33.1962 24.6179 34.3648 23.182 34.3648Z" fill="#1A2E35"/>
<path d="M34.7528 27.8533C32.5935 27.8533 30.8369 29.6061 30.8369 31.7602C30.8369 33.915 32.5935 35.6679 34.7528 35.6679C36.9073 35.6679 38.66 33.915 38.66 31.7602C38.6601 29.6061 36.9073 27.8533 34.7528 27.8533Z" fill="#38BFF2"/>
<path d="M34.7528 27.8533C32.5935 27.8533 30.8369 29.6061 30.8369 31.7602C30.8369 33.915 32.5935 35.6679 34.7528 35.6679C36.9073 35.6679 38.66 33.915 38.66 31.7602C38.6601 29.6061 36.9073 27.8533 34.7528 27.8533ZM34.7528 34.3648C33.3121 34.3648 32.1399 33.1962 32.1399 31.7602C32.1399 30.3243 33.3121 29.1561 34.7528 29.1561C36.1887 29.1561 37.3571 30.3243 37.3571 31.7602C37.3571 33.1962 36.1887 34.3648 34.7528 34.3648Z" fill="#1A2E35"/>
<path d="M46.3246 27.9315C44.1653 27.9315 42.4087 29.6843 42.4087 31.8385C42.4087 33.9933 44.1653 35.7461 46.3246 35.7461C48.4791 35.7461 50.2318 33.9933 50.2318 31.8385C50.2318 29.6843 48.4791 27.9315 46.3246 27.9315Z" fill="#38BFF2"/>
<path d="M46.3246 27.8533C44.1653 27.8533 42.4087 29.6061 42.4087 31.7602C42.4087 33.915 44.1653 35.6679 46.3246 35.6679C48.4791 35.6679 50.2318 33.915 50.2318 31.7602C50.2318 29.6061 48.4791 27.8533 46.3246 27.8533ZM46.3246 34.3648C44.8839 34.3648 43.7117 33.1962 43.7117 31.7602C43.7117 30.3243 44.8839 29.1561 46.3246 29.1561C47.7605 29.1561 48.9289 30.3243 48.9289 31.7602C48.9288 33.1962 47.7605 34.3648 46.3246 34.3648Z" fill="#1A2E35"/>
<path d="M57.8958 35.6679C60.0504 35.6679 61.8031 33.915 61.8031 31.7602C61.8031 29.6059 60.0503 27.8533 57.8958 27.8533C55.7366 27.8533 53.98 29.6061 53.98 31.7602C53.98 33.915 55.7366 35.6679 57.8958 35.6679Z" fill="#38BFF2"/>
<path d="M57.8958 35.6679C60.0504 35.6679 61.8031 33.915 61.8031 31.7602C61.8031 29.6059 60.0503 27.8533 57.8958 27.8533C55.7366 27.8533 53.98 29.6061 53.98 31.7602C53.98 33.915 55.7366 35.6679 57.8958 35.6679ZM57.8958 29.1563C59.3318 29.1563 60.5002 30.3244 60.5002 31.7604C60.5002 33.1963 59.3318 34.365 57.8958 34.365C56.4552 34.365 55.283 33.1963 55.283 31.7604C55.283 30.3243 56.4552 29.1563 57.8958 29.1563Z" fill="#1A2E35"/>
<path d="M23.182 38.8293C21.0227 38.8293 19.2661 40.5822 19.2661 42.737C19.2661 44.8913 21.0227 46.6439 23.182 46.6439C25.3362 46.6439 27.0889 44.8911 27.0889 42.737C27.0889 40.5822 25.3362 38.8293 23.182 38.8293Z" fill="#38BFF2"/>
<path d="M23.182 38.8293C21.0227 38.8293 19.2661 40.5822 19.2661 42.737C19.2661 44.8913 21.0227 46.6439 23.182 46.6439C25.3362 46.6439 27.0889 44.8911 27.0889 42.737C27.0889 40.5822 25.3362 38.8293 23.182 38.8293ZM23.182 45.3409C21.7413 45.3409 20.5691 44.1728 20.5691 42.7368C20.5691 41.3009 21.7413 40.1322 23.182 40.1322C24.6179 40.1322 25.786 41.3009 25.786 42.7368C25.786 44.1728 24.6179 45.3409 23.182 45.3409Z" fill="#1A2E35"/>
<path d="M34.7528 38.8293C32.5935 38.8293 30.8369 40.5822 30.8369 42.737C30.8369 44.8913 32.5935 46.6439 34.7528 46.6439C36.9073 46.6439 38.66 44.8911 38.66 42.737C38.6601 40.5822 36.9073 38.8293 34.7528 38.8293Z" fill="#38BFF2"/>
<path d="M34.7528 38.8293C32.5935 38.8293 30.8369 40.5822 30.8369 42.737C30.8369 44.8913 32.5935 46.6439 34.7528 46.6439C36.9073 46.6439 38.66 44.8911 38.66 42.737C38.6601 40.5822 36.9073 38.8293 34.7528 38.8293ZM34.7528 45.3409C33.3121 45.3409 32.1399 44.1728 32.1399 42.7368C32.1399 41.3009 33.3121 40.1322 34.7528 40.1322C36.1887 40.1322 37.3571 41.3009 37.3571 42.7368C37.3571 44.1728 36.1887 45.3409 34.7528 45.3409Z" fill="#1A2E35"/>
<path d="M46.3245 38.8293C44.1653 38.8293 42.4087 40.5822 42.4087 42.737C42.4087 44.8913 44.1653 46.6439 46.3245 46.6439C48.4791 46.6439 50.2318 44.8911 50.2318 42.737C50.2318 40.5822 48.4791 38.8293 46.3245 38.8293ZM46.3245 45.3409C44.8839 45.3409 43.7117 44.1728 43.7117 42.7368C43.7117 41.3009 44.8839 40.1322 46.3245 40.1322C47.7605 40.1322 48.9289 41.3009 48.9289 42.7368C48.9289 44.1728 47.7605 45.3409 46.3245 45.3409Z" fill="#1A2E35"/>
<path d="M61.8031 42.737C61.8031 40.5822 60.0503 38.8293 57.8958 38.8293C55.7366 38.8293 53.98 40.5822 53.98 42.737C53.98 44.8913 55.7366 46.6439 57.8958 46.6439C60.0504 46.6439 61.8031 44.8911 61.8031 42.737ZM57.8958 45.3409C56.4552 45.3409 55.283 44.1728 55.283 42.7368C55.283 41.3009 56.4552 40.1322 57.8958 40.1322C59.3318 40.1322 60.5002 41.3009 60.5002 42.7368C60.5002 44.1728 59.3318 45.3409 57.8958 45.3409Z" fill="#1A2E35"/>
<path d="M65.5862 7.43102H60.3575V3.90644C60.3575 3.54637 60.0659 3.255 59.7061 3.255C59.3463 3.255 59.0547 3.54637 59.0547 3.90644V7.43102H20.4587V3.90644C20.4587 3.54637 20.1671 3.255 19.8073 3.255C19.4475 3.255 19.1558 3.54637 19.1558 3.90644V7.43102H15.4827C13.7586 7.43102 12.3561 8.83381 12.3561 10.5581C12.3558 16.2883 12.3542 53.6848 12.3542 53.9291H8.16364C7.80386 53.9291 7.51221 54.2204 7.51221 54.5805C7.51221 57.4732 9.69629 59.7191 12.354 60.0329V62.6699C12.354 64.394 13.7568 65.7969 15.481 65.7969H65.5863C67.3104 65.7969 68.7133 64.3941 68.7133 62.6699C68.7133 51.1802 68.7133 21.4647 68.7133 10.5581C68.7132 8.83381 67.3104 7.43102 65.5862 7.43102ZM15.4826 8.73403H19.1557V13.9039C19.1557 14.2639 19.4474 14.5553 19.8071 14.5553C20.1669 14.5553 20.4586 14.2639 20.4586 13.9039V8.73403H59.0545V13.9039C59.0545 14.2639 59.3462 14.5553 59.706 14.5553C60.0657 14.5553 60.3574 14.2639 60.3574 13.9039V8.73403H65.586C66.5918 8.73403 67.41 9.55227 67.41 10.5581V19.0731H13.6588V10.5579C13.6588 9.55213 14.4771 8.73403 15.4826 8.73403ZM13.657 20.3766H67.4103V54.5786C67.4103 56.891 65.5324 58.7723 63.2237 58.7735C63.2216 58.7735 63.2201 58.7724 63.218 58.7724C60.9031 58.7724 59.026 56.8963 59.026 54.5804C59.026 54.2203 58.7343 53.9289 58.3745 53.9289H13.657V20.3766ZM8.86469 55.2319H57.7611C57.9243 56.6194 58.6051 57.8707 59.666 58.7724H13.0074C10.8979 58.7724 9.16985 57.2184 8.86469 55.2319ZM67.4102 62.6699C67.4102 63.6757 66.592 64.4939 65.5862 64.4939H15.481C14.4753 64.4939 13.657 63.6758 13.657 62.6699V60.0767H63.2212C64.8995 60.0767 66.4022 59.3172 67.4103 58.1258V62.6699H67.4102Z" fill="#1A2E35"/>
</g>
<defs>
<filter id="filter0_d_25_85" x="0" y="0.413086" width="79.3442" height="79.3445" filterUnits="userSpaceOnUse" color-interpolation-filters="sRGB">
<feFlood flood-opacity="0" result="BackgroundImageFix"/>
<feColorMatrix in="SourceAlpha" type="matrix" values="0 0 0 0 0 0 0 0 0 0 0 0 0 0 0 0 0 0 127 0" result="hardAlpha"/>
<feOffset dy="4"/>
<feGaussianBlur stdDeviation="2"/>
<feComposite in2="hardAlpha" operator="out"/>
<feColorMatrix type="matrix" values="0 0 0 0 0 0 0 0 0 0 0 0 0 0 0 0 0 0 0.25 0"/>
<feBlend mode="normal" in2="BackgroundImageFix" result="effect1_dropShadow_25_85"/>
<feBlend mode="normal" in="SourceGraphic" in2="effect1_dropShadow_25_85" result="shape"/>
</filter>
</defs>
</svg>
